<svg width="25" height="23" viewBox="0 0 25 23" fill="none" xmlns="http://www.w3.org/2000/svg">
<path opacity="0.24" fill-rule="evenodd" clip-rule="evenodd" d="M0.793701 2.96627C0.793701 4.40566 2.0599 5.57252 3.62183 5.57252C5.18376 5.57252 6.44995 4.40566 6.44995 2.96627C6.44995 1.52687 5.18376 0.360016 3.62183 0.360016C2.0599 0.360016 0.793701 1.52687 0.793701 2.96627ZM3.62183 13.9125C2.0599 13.9125 0.793701 12.7457 0.793701 11.3063C0.793701 9.86687 2.0599 8.70001 3.62183 8.70001C5.18376 8.70001 6.44995 9.86687 6.44995 11.3063C6.44995 12.7457 5.18376 13.9125 3.62183 13.9125ZM3.62183 22.2525C2.0599 22.2525 0.793701 21.0857 0.793701 19.6463C0.793701 18.2069 2.0599 17.04 3.62183 17.04C5.18376 17.04 6.44995 18.2069 6.44995 19.6463C6.44995 21.0857 5.18376 22.2525 3.62183 22.2525ZM12.6719 22.2525C11.1099 22.2525 9.84375 21.0857 9.84375 19.6463C9.84375 18.2069 11.1099 17.04 12.6719 17.04C14.2338 17.04 15.5 18.2069 15.5 19.6463C15.5 21.0857 14.2338 22.2525 12.6719 22.2525ZM18.8937 19.6463C18.8937 21.0857 20.1599 22.2525 21.7219 22.2525C23.2838 22.2525 24.55 21.0857 24.55 19.6463C24.55 18.2069 23.2838 17.04 21.7219 17.04C20.1599 17.04 18.8937 18.2069 18.8937 19.6463ZM12.6719 13.9125C11.1099 13.9125 9.84375 12.7457 9.84375 11.3063C9.84375 9.86687 11.1099 8.70001 12.6719 8.70001C14.2338 8.70001 15.5 9.86687 15.5 11.3063C15.5 12.7457 14.2338 13.9125 12.6719 13.9125ZM9.84375 2.96627C9.84375 4.40566 11.1099 5.57252 12.6719 5.57252C14.2338 5.57252 15.5 4.40566 15.5 2.96627C15.5 1.52687 14.2338 0.360016 12.6719 0.360016C11.1099 0.360016 9.84375 1.52687 9.84375 2.96627ZM21.7219 13.9125C20.1599 13.9125 18.8937 12.7457 18.8937 11.3063C18.8937 9.86687 20.1599 8.70001 21.7219 8.70001C23.2838 8.70001 24.55 9.86687 24.55 11.3063C24.55 12.7457 23.2838 13.9125 21.7219 13.9125ZM18.8937 2.96627C18.8937 4.40566 20.1599 5.57252 21.7219 5.57252C23.2838 5.57252 24.55 4.40566 24.55 2.96627C24.55 1.52687 23.2838 0.360016 21.7219 0.360016C20.1599 0.360016 18.8937 1.52687 18.8937 2.96627Z" fill="black"/>
</svg>
