<svg width="22" height="20" viewBox="0 0 22 20" fill="none" xmlns="http://www.w3.org/2000/svg">
<path opacity="0.24" fill-rule="evenodd" clip-rule="evenodd" d="M17.8966 17.6776C18.1414 18.988 16.9052 19.8112 15.6241 19.193C15.6241 19.193 10.8129 16.8957 10.8597 16.8732L6.05194 19.193C4.76985 19.8117 3.53474 18.987 3.77942 17.6776C3.77942 17.6776 4.67321 12.7681 4.71103 12.802L0.821469 9.32219C-0.215765 8.39423 0.257162 7.06126 1.6895 6.87023C1.6895 6.87023 7.053 6.1333 7.02962 6.17677L9.4335 1.70627C10.0745 0.514123 11.6019 0.515027 12.2425 1.70627C12.2425 1.70627 14.6635 6.16033 14.6113 6.15335L19.9865 6.87023C21.4199 7.0614 21.891 8.39493 20.8545 9.32219C20.8545 9.32219 16.9873 12.8119 16.9784 12.7641L17.8966 17.6776ZM6.02783 17.031L9.8839 15.1696C10.4487 14.8971 11.2287 14.8978 11.7921 15.1696L15.6577 17.0349L14.9116 13.0895C14.8037 12.5122 15.0455 11.8316 15.5013 11.4238L18.6161 8.63716L14.3097 8.05798C13.6783 7.97377 13.0477 7.55245 12.766 7.02855L10.8393 3.44553L8.91003 7.02855C8.62764 7.55371 7.99619 7.97397 7.36627 8.05798L3.05498 8.63296L6.17472 11.4238C6.63164 11.8326 6.87199 12.5136 6.76439 13.0895L6.02783 17.031Z" fill="black"/>
</svg>
