<svg width="23" height="20" viewBox="0 0 23 20" fill="none" xmlns="http://www.w3.org/2000/svg">
<path opacity="0.24" fill-rule="evenodd" clip-rule="evenodd" d="M7.33021 0.647491C5.62629 0.647491 4.24498 1.90627 4.24498 3.45957V13.783H1.15976C0.591782 13.783 0.131348 14.2044 0.131348 14.7203V16.5978C0.131348 18.1523 1.51612 19.4125 3.21657 19.4125H15.5575C17.2611 19.4125 18.6427 18.1556 18.6427 16.6024V6.277H21.7279C22.2999 6.277 22.7563 5.85805 22.7563 5.34125V3.46682C22.7563 1.91008 21.3762 0.647491 19.6711 0.647491H7.33021ZM6.12698 17.536C6.24021 17.2433 6.30181 16.9285 6.30181 16.6004V3.45957C6.30181 2.94313 6.76169 2.52399 7.33022 2.52399C7.89628 2.52399 8.35863 2.94547 8.35863 3.46224V5.33972C8.35863 5.85736 8.8151 6.27699 9.38704 6.27699H16.5859V16.6024C16.5859 17.1181 16.1265 17.536 15.5575 17.536H6.12698ZM2.18815 15.6595V16.5977C2.18815 17.1145 2.6505 17.536 3.21656 17.536C3.78509 17.536 4.24497 17.1169 4.24497 16.6004V15.6595H2.18815ZM10.4154 4.40051V3.46225C10.4154 3.13326 10.3534 2.81746 10.2395 2.52399H19.6711C20.2389 2.52399 20.6995 2.94531 20.6995 3.46683V4.40051H10.4154Z" fill="black"/>
</svg>
