<svg width="23" height="20" viewBox="0 0 23 20" fill="none" xmlns="http://www.w3.org/2000/svg">
<g opacity="0.24">
<path fill-rule="evenodd" clip-rule="evenodd" d="M1.88695 11.0423C1.48533 11.4107 0.83418 11.4107 0.432562 11.0423C0.030943 10.674 0.030943 10.0767 0.432562 9.7084L10.7167 0.276261C11.1183 -0.092087 11.7694 -0.092087 12.171 0.276261L22.4551 9.7084C22.8568 10.0767 22.8568 10.674 22.4551 11.0423C22.0535 11.4107 21.4024 11.4107 21.0007 11.0423L20.6995 10.7663V17.9252C20.6995 18.9665 19.7799 19.8075 18.6418 19.8075H4.24588C3.11048 19.8075 2.18817 18.9666 2.18817 17.9252V10.7663L1.88695 11.0423ZM4.24587 17.9211L7.3302 17.9216V12.2595C7.3302 11.7398 7.79016 11.3186 8.35555 11.3186H14.5321C15.0984 11.3186 15.5575 11.7395 15.5575 12.2595V17.9236L18.6427 17.9252V8.88152L11.4438 2.28481L4.24492 8.88156C4.24471 10.6656 4.24587 17.9211 4.24587 17.9211ZM13.5007 13.2035V17.923L9.38704 17.922V13.205L13.5007 13.2035Z" fill="black"/>
</g>
</svg>
