<svg width="23" height="18" viewBox="0 0 23 18" fill="none" xmlns="http://www.w3.org/2000/svg">
<path opacity="0.24" fill-rule="evenodd" clip-rule="evenodd" d="M2.18317 0.607513C1.05679 0.607513 0.131348 1.43524 0.131348 2.45629V15.4387C0.131348 16.4603 1.05263 17.2875 2.1891 17.2875H20.6986C21.8343 17.2875 22.7563 16.4579 22.7563 15.4345V5.2405C22.7563 4.21539 21.8336 3.38751 20.6953 3.38751H11.4477L9.99103 1.3819C9.68023 0.953981 8.96722 0.607513 8.39809 0.607513H2.18317ZM20.6986 15.4342L2.18816 15.4387L2.18317 2.46082L8.35861 2.46535L9.72672 4.40239C10.1067 4.92556 10.7538 5.24082 11.4477 5.24082L20.6995 5.24048L20.6986 15.4342Z" fill="black"/>
</svg>
