<svg width="21" height="19" viewBox="0 0 21 19" fill="none" xmlns="http://www.w3.org/2000/svg">
<path opacity="0.24" fill-rule="evenodd" clip-rule="evenodd" d="M4.68065 1.20749C4.68065 0.631734 5.1887 0.164993 5.8067 0.164993H14.8671C15.489 0.164993 15.9932 0.62772 15.9932 1.20749C15.9932 1.78324 15.4851 2.24998 14.8671 2.24998H5.8067C5.1848 2.24998 4.68065 1.78726 4.68065 1.20749ZM0.27388 8.60393L1.17992 16.9535C1.30011 18.0611 2.33946 18.93 3.54446 18.93H17.1294C18.3299 18.93 19.3741 18.0577 19.4939 16.9535L20.3999 8.60393C20.529 7.41433 19.5497 6.42 18.2547 6.42H2.41915C1.12144 6.42 0.145014 7.41638 0.27388 8.60393ZM2.5374 8.50938L18.136 8.51323L17.1244 16.845H3.54941L2.5374 8.50938ZM3.54445 3.29251C2.92716 3.29251 2.41815 3.75925 2.41815 4.33501C2.41815 4.91478 2.92241 5.3775 3.54445 5.3775H17.1294C17.7466 5.3775 18.2557 4.91076 18.2557 4.33501C18.2557 3.75524 17.7514 3.29251 17.1294 3.29251H3.54445Z" fill="black"/>
</svg>
