<svg width="20" height="21" viewBox="0 0 20 21" fill="none" xmlns="http://www.w3.org/2000/svg">
<path opacity="0.24" fill-rule="evenodd" clip-rule="evenodd" d="M14.7904 18.1754C13.4031 18.9939 11.7646 19.4668 10.0094 19.4668C8.25424 19.4668 6.61576 18.9939 5.22846 18.1754L4.20108 19.8596C3.88899 20.3712 3.20114 20.5483 2.6563 20.2506C2.11523 19.9549 1.92738 19.3042 2.2417 18.7889C2.2417 18.7889 3.42855 16.8499 3.45942 16.812C1.91047 15.2749 0.959424 13.1933 0.959424 10.9014C0.959424 9.62576 1.25406 8.41525 1.78244 7.32751C0.93256 6.64019 0.393799 5.61832 0.393799 4.47735C0.393799 2.40773 2.16647 0.72998 4.35317 0.72998C5.81623 0.72998 7.09394 1.48103 7.77938 2.598C8.49274 2.42691 9.23986 2.336 10.0094 2.336C10.7053 2.336 11.3828 2.41032 12.0336 2.55105C12.7257 1.46004 13.988 0.72998 15.4305 0.72998C17.6172 0.72998 19.3899 2.40773 19.3899 4.47735C19.3899 5.54262 18.9202 6.50408 18.1662 7.18636C18.7386 8.31014 19.0594 9.57031 19.0594 10.9014C19.0594 13.1933 18.1084 15.2749 16.5594 16.812C16.5903 16.8499 17.7772 18.7889 17.7772 18.7889C18.0915 19.3042 17.9036 19.9549 17.3625 20.2506C16.8177 20.5483 16.1299 20.3712 15.8178 19.8596L14.7904 18.1754ZM8.87817 6.61851C8.87817 6.0273 9.3803 5.54803 10.0094 5.54803C10.6342 5.54803 11.1407 6.02311 11.1407 6.61851V10.9014C11.1407 11.4927 10.6391 11.9721 10.0105 11.9721H7.74585C7.12167 11.9721 6.61567 11.4969 6.61567 10.9014C6.61567 10.3101 7.11722 9.83075 7.74585 9.83075H8.87817V6.61851ZM2.6563 4.47737C2.6563 3.5904 3.41602 2.87137 4.35317 2.87137C4.85011 2.87137 5.30636 3.07541 5.62076 3.40877C4.62065 3.93462 3.73686 4.63463 3.01513 5.46552C2.78882 5.19063 2.6563 4.846 2.6563 4.47737ZM17.1274 4.47738C17.1274 3.5904 16.3676 2.87137 15.4305 2.87137C14.9744 2.87137 14.5526 3.04324 14.2433 3.32922C15.2477 3.83333 16.1398 4.51122 16.875 5.32056C17.0358 5.07359 17.1274 4.78377 17.1274 4.47738ZM10.0094 17.3255C6.26079 17.3255 3.22192 14.4493 3.22192 10.9014C3.22192 7.35353 6.26079 4.47739 10.0094 4.47739C13.7581 4.47739 16.7969 7.35353 16.7969 10.9014C16.7969 14.4493 13.7581 17.3255 10.0094 17.3255Z" fill="black"/>
</svg>
