<svg width="25" height="17" viewBox="0 0 25 17" fill="none" xmlns="http://www.w3.org/2000/svg">
<path opacity="0.24" fill-rule="evenodd" clip-rule="evenodd" d="M14.597 0.690529C13.6966 0.990413 13.3121 1.07176 12.4436 1.07176C11.575 1.07176 11.1905 0.990413 10.2902 0.690529L10.2198 0.667088C9.08329 0.288377 8.40778 0.144989 7.29119 0.144989C4.58218 0.144989 2.09543 2.5246 1.06676 5.42503C0.277453 7.65057 0.0667175 9.0761 0 12.1738C0.065896 15.2534 1.51691 16.81 4.14109 16.825C5.78597 16.8164 6.91442 16.1609 7.95741 14.9702C8.11836 14.7865 8.56104 14.2426 8.60821 14.1846L8.61229 14.1796C9.68586 12.9 10.7958 12.2017 12.4468 12.1917C14.0913 12.2017 15.2013 12.9 16.2748 14.1796L16.2788 14.1845C16.3255 14.2418 16.7686 14.7863 16.9297 14.9702C17.9727 16.1609 19.1011 16.8164 20.7333 16.825C23.3702 16.81 24.8212 15.2534 24.8871 12.2096C24.8204 9.0761 24.6097 7.65057 23.8204 5.42503C22.7917 2.5246 20.3049 0.144989 17.5959 0.144989C16.4793 0.144989 15.8038 0.288377 14.6673 0.667088L14.597 0.690529ZM9.56582 2.42715C10.6812 2.79864 11.4045 2.92508 12.4435 2.92508C13.4826 2.92508 14.206 2.79864 15.3213 2.42715L15.3919 2.40362C16.317 2.09537 16.7742 1.99832 17.5959 1.99832C19.208 1.99832 21.0569 3.76759 21.8433 5.98495C22.5645 8.0185 22.7504 9.27549 22.8135 12.2095C22.7679 14.2832 22.1336 14.9636 20.7328 14.9716C19.8575 14.967 19.2532 14.616 18.5628 13.8278C18.4481 13.6968 18.1237 13.2997 17.9911 13.1373L17.991 13.1372L17.9342 13.0679C16.5109 11.3714 14.8918 10.353 12.4371 10.3383C9.99531 10.353 8.37618 11.3714 6.9529 13.0679L6.8961 13.1373C6.76351 13.2996 6.43905 13.6968 6.32429 13.8278C5.63389 14.616 5.02963 14.967 4.14162 14.9716C2.75354 14.9636 2.11924 14.2832 2.07357 12.1737C2.13677 9.27549 2.32259 8.0185 3.04381 5.98495C3.83022 3.76759 5.67915 1.99832 7.2912 1.99832C8.11292 1.99832 8.57014 2.09537 9.49521 2.40362L9.56582 2.42715ZM17.6285 6.1683C17.0557 6.1683 16.5915 5.75344 16.5915 5.24167C16.5915 4.7299 17.0557 4.31503 17.6285 4.31503C18.2012 4.31503 18.6654 4.7299 18.6654 5.24167C18.6654 5.75344 18.2012 6.1683 17.6285 6.1683ZM16.5915 8.9483C16.5915 9.46009 17.0557 9.87497 17.6285 9.87497C18.2012 9.87497 18.6654 9.46009 18.6654 8.9483C18.6654 8.43652 18.2012 8.02164 17.6285 8.02164C17.0557 8.02164 16.5915 8.43652 16.5915 8.9483ZM19.7024 8.02164C19.1297 8.02164 18.6654 7.60675 18.6654 7.09497C18.6654 6.58319 19.1297 6.1683 19.7024 6.1683C20.2751 6.1683 20.7394 6.58319 20.7394 7.09497C20.7394 7.60675 20.2751 8.02164 19.7024 8.02164ZM14.5175 7.09497C14.5175 7.60675 14.9818 8.02164 15.5545 8.02164C16.1272 8.02164 16.5915 7.60675 16.5915 7.09497C16.5915 6.58319 16.1272 6.1683 15.5545 6.1683C14.9818 6.1683 14.5175 6.58319 14.5175 7.09497ZM7.25867 9.87497C5.54054 9.87497 4.14773 8.63034 4.14773 7.095C4.14773 5.55967 5.54054 4.31503 7.25867 4.31503C8.97679 4.31503 10.3696 5.55967 10.3696 7.095C10.3696 8.63034 8.97679 9.87497 7.25867 9.87497ZM8.29563 7.09497C8.29563 7.60675 7.83136 8.02164 7.25865 8.02164C6.68594 8.02164 6.22167 7.60675 6.22167 7.09497C6.22167 6.58319 6.68594 6.1683 7.25865 6.1683C7.83136 6.1683 8.29563 6.58319 8.29563 7.09497Z" fill="black"/>
</svg>
