<svg width="0" height="0" class="hidden">
  <symbol xmlns="http://www.w3.org/2000/svg" viewBox="0 0 22 20" id="search">
    <path fill-rule="evenodd" clip-rule="evenodd" d="M20.931 17.59l-4.05-3.732v-.002c2.93-3.478 2.42-8.456-1.164-11.368-3.583-2.913-9.006-2.756-12.385.357C-.047 5.96-.217 10.956 2.944 14.26c3.16 3.302 8.562 3.772 12.337 1.072l4.05 3.732a1.2 1.2 0 001.1.285 1.09 1.09 0 00.808-.744.989.989 0 00-.308-1.014zm-5.321-5.72c-1.212 1.936-3.453 3.128-5.878 3.128-3.749 0-6.788-2.8-6.788-6.255 0-3.454 3.04-6.255 6.788-6.255 2.425 0 4.666 1.192 5.878 3.128a5.833 5.833 0 010 6.255z" ></path>
  </symbol>
   <symbol  xmlns="http://www.w3.org/2000/svg" viewBox="0 0 32 22" id="video">
    <path  fill-rule="evenodd" clip-rule="evenodd" d="M25.81 3.35l-4.297 2.933V2.97c0-1.443-1.243-2.609-2.776-2.609H3.464C1.928.36.688 1.528.688 2.969v15.632c0 1.443 1.242 2.609 2.776 2.609h15.273c1.536 0 2.776-1.168 2.776-2.609v-3.314l4.298 2.934c.307.21.873.383 1.257.383h2.77c.778 0 1.393-.585 1.393-1.307V4.273c0-.722-.623-1.307-1.392-1.307h-2.77c-.393 0-.948.172-1.258.384zM3.465 18.604V2.966h15.272v15.638H3.464zm2.777-3.91c0-.72.623-1.303 1.392-1.303h6.934c.769 0 1.392.579 1.392 1.303 0 .72-.622 1.303-1.392 1.303H7.633c-.769 0-1.392-.578-1.392-1.303zm21.043 1.303l-5.754-3.921V9.494l5.75-3.925 1.174.002v10.425l-1.17.001z" ></path>
  </symbol>
  <symbol  xmlns="http://www.w3.org/2000/svg" viewBox="0 0 25 23" id="apps">
    <path  fill-rule="evenodd" clip-rule="evenodd" d="M.794 2.966c0 1.44 1.266 2.607 2.828 2.607 1.562 0 2.828-1.167 2.828-2.607C6.45 1.526 5.184.36 3.622.36 2.06.36.794 1.527.794 2.966zm2.828 10.947c-1.562 0-2.828-1.167-2.828-2.607C.794 9.866 2.06 8.7 3.622 8.7c1.562 0 2.828 1.167 2.828 2.606 0 1.44-1.266 2.607-2.828 2.607zm0 8.34c-1.562 0-2.828-1.167-2.828-2.607 0-1.44 1.266-2.606 2.828-2.606 1.562 0 2.828 1.167 2.828 2.606 0 1.44-1.266 2.607-2.828 2.607zm9.05 0c-1.562 0-2.828-1.167-2.828-2.607 0-1.44 1.266-2.606 2.828-2.606 1.562 0 2.828 1.167 2.828 2.606 0 1.44-1.266 2.607-2.828 2.607zm6.222-2.607c0 1.44 1.266 2.607 2.828 2.607 1.562 0 2.828-1.167 2.828-2.607 0-1.44-1.266-2.606-2.828-2.606-1.562 0-2.828 1.167-2.828 2.606zm-6.222-5.734c-1.562 0-2.828-1.166-2.828-2.606S11.11 8.7 12.672 8.7c1.562 0 2.828 1.167 2.828 2.606 0 1.44-1.266 2.607-2.828 2.607zM9.844 2.966c0 1.44 1.266 2.607 2.828 2.607 1.562 0 2.828-1.167 2.828-2.607 0-1.44-1.266-2.606-2.828-2.606-1.562 0-2.828 1.167-2.828 2.606zm11.878 10.947c-1.562 0-2.828-1.167-2.828-2.607 0-1.44 1.266-2.606 2.828-2.606 1.562 0 2.828 1.167 2.828 2.606 0 1.44-1.266 2.607-2.828 2.607zM18.894 2.966c0 1.44 1.266 2.607 2.828 2.607 1.562 0 2.828-1.167 2.828-2.607 0-1.44-1.266-2.606-2.828-2.606-1.562 0-2.828 1.167-2.828 2.606z" ></path>
  </symbol>
   <symbol  xmlns="http://www.w3.org/2000/svg" viewBox="0 0 25 28" id="notifications">
    <path  fill-rule="evenodd" clip-rule="evenodd" d="M4.263 23.641c-2.29 0-4.15-1.656-4.15-3.696 0-1.354.822-2.56 2.08-3.204l-.006-4.806c0-4.257 3.207-7.841 7.604-8.912v-.326c0-1.361 1.238-2.464 2.765-2.464 1.528 0 2.766 1.103 2.766 2.464v.326c4.398 1.07 7.604 4.655 7.604 8.919v4.81C24.185 17.398 25 18.6 25 19.944c0 2.043-1.857 3.696-4.15 3.696h-4.146c-.002 2.042-1.863 3.697-4.148 3.697-2.29 0-4.148-1.654-4.148-3.694l-4.145-.003zm6.91 0c0 .682.619 1.232 1.383 1.232.76 0 1.38-.552 1.383-1.232h-2.765zm8.988-11.7v5.954c0 .342.305.689.674.774l.362.083c.605.14 1.038.63 1.038 1.193 0 .681-.619 1.232-1.386 1.232H4.263c-.764 0-1.385-.553-1.385-1.232 0-.565.43-1.054 1.036-1.193l.375-.086c.366-.084.663-.426.663-.77v-5.96c0-3.743 3.404-6.775 7.604-6.775 4.203 0 7.605 3.031 7.605 6.78z" ></path>
  </symbol>
  <symbol  xmlns="http://www.w3.org/2000/svg" viewBox="0 0 23 20" id="home">
    <path fill-rule="evenodd" clip-rule="evenodd" d="M1.887 11.042a1.095 1.095 0 01-1.454 0 .889.889 0 010-1.334L10.717.276a1.095 1.095 0 011.454 0l10.284 9.432a.889.889 0 010 1.334 1.095 1.095 0 01-1.454 0l-.302-.276v7.16c0 1.04-.92 1.882-2.057 1.882H4.246c-1.136 0-2.058-.841-2.058-1.883v-7.159l-.301.276zm2.359 6.88H7.33v-5.663c0-.52.46-.94 1.026-.94h6.176c.566 0 1.025.42 1.025.94v5.665l3.086.001V8.882l-7.2-6.597-7.198 6.597v9.04zm9.255-4.719v4.72l-4.114-.001v-4.717l4.114-.002z"  ></path>
  </symbol>
  <symbol  xmlns="http://www.w3.org/2000/svg" viewBox="0 0 19 22" id="trend">
    <path  fill-rule="evenodd" clip-rule="evenodd" d="M15.796 7.546c1.716 1.367 2.698 3.042 2.698 5.339 0 4.786-4.058 8.554-9.037 8.554-4.984 0-9.063-3.771-9.063-8.554 0-2.635.62-4.263 2.438-6.969.575-.856 1.972-.544 2.08.465.098.906.396 1.678.831 2.27-.29-3.197 1.216-6.793 4.93-8.5.86-.396 1.819.332 1.595 1.21-.58 2.27.018 3.498 1.579 4.816.038.032.233.165.49.34.466.317 1.138.774 1.459 1.03zM3.359 9.43c-.32.684-.703 1.507-.703 3.455 0 3.593 3.056 6.418 6.8 6.418 3.739 0 6.775-2.82 6.775-6.418 0-1.606-.65-2.716-1.894-3.706a26.81 26.81 0 00-1.089-.768c-.409-.28-.794-.544-.91-.642-1.498-1.265-2.415-2.613-2.54-4.41-.757.697-2.499 2.865-1.517 7.156.152.666-.385 1.294-1.106 1.294-1.43 0-2.844-1.033-3.708-2.614l-.108.235z" ></path>
  </symbol>
  <symbol  xmlns="http://www.w3.org/2000/svg" viewBox="0 0 21 19" id="subscriptoin">
    <path  fill-rule="evenodd" clip-rule="evenodd" d="M4.68 1.207c0-.575.51-1.042 1.128-1.042h9.06c.622 0 1.126.463 1.126 1.042 0 .576-.508 1.043-1.126 1.043h-9.06c-.622 0-1.126-.463-1.126-1.043zM.275 8.604l.906 8.35c.12 1.107 1.16 1.976 2.364 1.976H17.13c1.2 0 2.245-.872 2.365-1.977l.906-8.35c.129-1.189-.85-2.183-2.145-2.183H2.419c-1.298 0-2.274.996-2.145 2.184zm2.263-.095l15.599.004-1.012 8.332H3.55L2.537 8.509zm1.007-5.216c-.617 0-1.126.466-1.126 1.042 0 .58.504 1.043 1.126 1.043H17.13c.618 0 1.127-.467 1.127-1.043 0-.58-.505-1.042-1.127-1.042H3.544z" ></path>
  </symbol>
  <symbol  xmlns="http://www.w3.org/2000/svg" viewBox="0 0 23 18" id="library">
    <path  fill-rule="evenodd" clip-rule="evenodd" d="M2.183.608C1.057.608.131 1.435.131 2.456V15.44c0 1.021.922 1.849 2.058 1.849H20.7c1.135 0 2.057-.83 2.057-1.854V5.242c0-1.026-.922-1.853-2.06-1.853h-9.248L9.99 1.382C9.681.954 8.967.608 8.398.608H2.183zM20.7 15.434l-18.51.005L2.182 2.46l6.176.004 1.368 1.937c.38.524 1.027.839 1.72.839H20.7l-.001 10.193z" ></path>
  </symbol>
  <symbol  xmlns="http://www.w3.org/2000/svg" viewBox="0 0 23 20" id="history">
    <path  fill-rule="evenodd" clip-rule="evenodd" d="M7.33.647c-1.704 0-3.085 1.26-3.085 2.813v10.323H1.16c-.568 0-1.029.421-1.029.937v1.878c0 1.554 1.385 2.815 3.086 2.815h12.34c1.704 0 3.086-1.257 3.086-2.81V6.276h3.085c.572 0 1.028-.419 1.028-.936V3.467c0-1.557-1.38-2.82-3.085-2.82H7.331zM6.127 17.536c.113-.293.175-.608.175-.936V3.46c0-.517.46-.936 1.028-.936.566 0 1.029.421 1.029.938V5.34c0 .517.456.937 1.028.937h7.199v10.325c0 .516-.46.934-1.028.934H6.127zm-3.939-1.877v.939c0 .517.462.938 1.029.938.568 0 1.028-.42 1.028-.936v-.94H2.188zm8.227-11.258v-.939a2.6 2.6 0 00-.175-.938h9.431c.568 0 1.029.421 1.029.943V4.4H10.415z" ></path>
  </symbol>
   <symbol  xmlns="http://www.w3.org/2000/svg" viewBox="0 0 20 21" id="watch-leter">
    <path  fill-rule="evenodd" clip-rule="evenodd" d="M14.79 18.175a9.388 9.388 0 01-4.78 1.292 9.388 9.388 0 01-4.782-1.292L4.201 19.86c-.312.511-1 .688-1.545.39-.54-.295-.729-.946-.414-1.461 0 0 1.187-1.94 1.217-1.977-1.549-1.537-2.5-3.619-2.5-5.91 0-1.276.295-2.487.823-3.574C.932 6.64.394 5.618.394 4.478.394 2.407 2.166.73 4.354.73c1.462 0 2.74.751 3.425 1.868a9.554 9.554 0 012.23-.262 9.57 9.57 0 012.025.215C12.726 1.46 13.988.73 15.43.73c2.187 0 3.96 1.678 3.96 3.747 0 1.066-.47 2.027-1.224 2.71a8.156 8.156 0 01.893 3.714c0 2.292-.95 4.374-2.5 5.911.031.038 1.218 1.977 1.218 1.977.314.515.127 1.166-.415 1.462-.544.297-1.232.12-1.544-.391l-1.028-1.685zM8.878 6.62c0-.592.502-1.071 1.131-1.071.625 0 1.132.475 1.132 1.07v4.283c0 .592-.502 1.071-1.13 1.071H7.745c-.624 0-1.13-.475-1.13-1.07 0-.592.501-1.071 1.13-1.071h1.132V6.619zM2.656 4.477c0-.887.76-1.606 1.697-1.606.497 0 .953.204 1.268.538a8.994 8.994 0 00-2.606 2.057 1.551 1.551 0 01-.359-.989zm14.471 0c0-.887-.76-1.606-1.696-1.606a1.75 1.75 0 00-1.188.458 9.021 9.021 0 012.632 1.992c.16-.247.252-.537.252-.844zM10.01 17.326c-3.748 0-6.787-2.877-6.787-6.425 0-3.547 3.039-6.424 6.787-6.424 3.75 0 6.788 2.877 6.788 6.424 0 3.548-3.039 6.425-6.788 6.425z" ></path>
  </symbol>
   <symbol  xmlns="http://www.w3.org/2000/svg" viewBox="0 0 22 20" id="favourites">
    <path  fill-rule="evenodd" clip-rule="evenodd" d="M17.897 17.678c.244 1.31-.992 2.133-2.273 1.515 0 0-4.811-2.297-4.764-2.32l-4.808 2.32c-1.282.619-2.517-.206-2.273-1.515 0 0 .894-4.91.932-4.876l-3.89-3.48c-1.037-.928-.564-2.26.869-2.452 0 0 5.363-.737 5.34-.693l2.404-4.47c.64-1.193 2.168-1.192 2.809 0 0 0 2.42 4.453 2.368 4.446l5.375.717c1.434.191 1.905 1.525.869 2.452 0 0-3.868 3.49-3.877 3.442l.919 4.914zm-11.87-.647l3.857-1.861c.565-.273 1.345-.272 1.908 0l3.866 1.865-.746-3.946c-.108-.577.133-1.257.59-1.665l3.114-2.787-4.306-.579c-.632-.084-1.262-.506-1.544-1.03l-1.927-3.582L8.91 7.029c-.282.525-.914.945-1.544 1.029l-4.311.575 3.12 2.79c.457.41.697 1.09.59 1.666l-.737 3.942z" ></path>
  </symbol>
   <symbol  xmlns="http://www.w3.org/2000/svg" viewBox="0 0 21 19" id="liked">
    <path  fill-rule="evenodd" clip-rule="evenodd" d="M14.516.895a6.307 6.307 0 00-4.072 1.464A6.307 6.307 0 006.37.895C2.997.895.262 3.468.262 6.643c0 4.633 5.07 9.111 9.752 11.724a.946.946 0 00.862-.002c4.652-2.621 9.749-7.09 9.749-11.722 0-3.175-2.735-5.748-6.109-5.748zM10.45 16.35c-5.035-3.097-8.151-6.714-8.151-9.707 0-2.116 1.823-3.832 4.072-3.832a4.2 4.2 0 012.715.975l.98.825a.605.605 0 00.756 0l.98-.825a4.197 4.197 0 012.714-.975c2.25 0 4.073 1.716 4.073 3.832 0 3.07-3.105 6.61-8.14 9.707z" ></path>
  </symbol>
   <symbol  xmlns="http://www.w3.org/2000/svg" viewBox="0 0 25 17" id="games">
    <path  fill-rule="evenodd" clip-rule="evenodd" d="M14.597.69c-.9.3-1.285.382-2.153.382-.869 0-1.254-.082-2.154-.381l-.07-.024C9.083.288 8.408.145 7.29.145c-2.709 0-5.196 2.38-6.224 5.28-.79 2.226-1 3.651-1.067 6.749.066 3.08 1.517 4.636 4.141 4.651 1.645-.009 2.773-.664 3.816-1.855.161-.184.604-.727.651-.785l.004-.005c1.074-1.28 2.184-1.978 3.835-1.988 1.644.01 2.754.708 3.828 1.988l.004.005c.047.057.49.601.65.785 1.044 1.19 2.172 1.846 3.804 1.855 2.637-.015 4.088-1.572 4.154-4.615-.067-3.134-.277-4.56-1.067-6.785-1.028-2.9-3.515-5.28-6.224-5.28-1.117 0-1.792.143-2.929.522l-.07.024zM9.566 2.428c1.115.372 1.838.498 2.877.498 1.04 0 1.763-.126 2.878-.498l.07-.023c.926-.309 1.383-.406 2.205-.406 1.612 0 3.46 1.77 4.247 3.987.721 2.033.907 3.29.97 6.224-.045 2.074-.68 2.755-2.08 2.763-.875-.005-1.48-.356-2.17-1.144a42.91 42.91 0 01-.572-.69l-.057-.07c-1.423-1.697-3.042-2.715-5.497-2.73-2.442.015-4.06 1.033-5.484 2.73l-.057.07c-.132.162-.457.559-.572.69-.69.788-1.294 1.139-2.182 1.144-1.388-.008-2.023-.689-2.068-2.798.063-2.899.249-4.155.97-6.189.786-2.217 2.635-3.987 4.247-3.987.822 0 1.28.097 2.204.406l.07.023zm8.062 3.741c-.572 0-1.037-.415-1.037-.926 0-.512.465-.927 1.037-.927.573 0 1.037.415 1.037.927 0 .511-.464.926-1.037.926zm-1.037 2.78c0 .512.465.927 1.037.927.573 0 1.037-.415 1.037-.927 0-.511-.464-.926-1.037-.926-.572 0-1.037.415-1.037.926zm3.111-.926c-.572 0-1.037-.415-1.037-.927s.465-.927 1.037-.927c.573 0 1.037.415 1.037.927s-.464.927-1.037.927zm-5.185-.927c0 .512.465.927 1.038.927.572 0 1.037-.415 1.037-.927s-.465-.927-1.037-.927c-.573 0-1.037.415-1.037.927zM7.26 9.875c-1.718 0-3.111-1.245-3.111-2.78 0-1.535 1.393-2.78 3.11-2.78 1.719 0 3.112 1.245 3.112 2.78 0 1.535-1.393 2.78-3.111 2.78zm1.037-2.78c0 .512-.465.927-1.037.927-.573 0-1.037-.415-1.037-.927s.464-.927 1.037-.927c.572 0 1.037.415 1.037.927z" ></path>
  </symbol>
   <symbol  xmlns="http://www.w3.org/2000/svg" viewBox="0 0 16 9" id="show">
    <path  d="M8.07 5.919l5.6-5.16c.283-.272.704-.38 1.1-.285.395.095.704.38.807.745a.989.989 0 01-.308 1.013l-6.4 5.898a1.2 1.2 0 01-1.6 0L.87 2.232A.99.99 0 01.562 1.22 1.09 1.09 0 011.37.474c.395-.095.816.013 1.1.284l5.6 5.16z" ></path>
  </symbol>
   <symbol  xmlns="http://www.w3.org/2000/svg" viewBox="0 0 21 22" id="music">
    <path  fill-rule="evenodd" clip-rule="evenodd" d="M17.061 18.942c1.968 0 3.564-1.485 3.564-3.317V1.904a.89.89 0 00-.027-.238c-.128-.51-.676-.825-1.224-.706L6.177 3.845a1.054 1.054 0 00-.824.881V15.47a3.77 3.77 0 00-1.527-.319c-1.968 0-3.564 1.485-3.564 3.317s1.596 3.317 3.564 3.317 3.563-1.485 3.563-3.317v-9.15l11.2-2.448v5.757a3.77 3.77 0 00-1.527-.32c-1.969 0-3.564 1.486-3.564 3.318s1.596 3.317 3.563 3.317zM7.39 7.37V5.527l11.2-2.448v1.844L7.389 7.37zm11.2 8.255c0-.785-.684-1.422-1.527-1.422-.844 0-1.528.637-1.528 1.422 0 .785.684 1.422 1.527 1.422.844 0 1.528-.637 1.528-1.422zM3.826 17.047c.843 0 1.527.636 1.527 1.421S4.67 19.89 3.826 19.89c-.844 0-1.527-.637-1.527-1.422 0-.785.683-1.421 1.527-1.421z" ></path>
  </symbol>
   <symbol  xmlns="http://www.w3.org/2000/svg" viewBox="0 0 22 22" id="setting">
    <path  fill-rule="evenodd" clip-rule="evenodd" d="M15.699 4.338l-.84-.452s-.878-2.2-.952-2.35C13.627.917 12.862.45 12.095.45H9.989c-.764 0-1.526.465-1.825 1.113-.061.123-.93 2.323-.93 2.323l-.83.455S3.877 3.935 3.7 3.919c-.724-.087-1.544.29-1.928.903L.718 6.502c-.382.61-.326 1.45.134 2.014.085.11 1.719 1.913 1.719 1.913s-.014.297-.014.446c0 .316.012.447.012.447S.937 13.124.834 13.257c-.444.534-.5 1.378-.116 1.99l1.053 1.68c.382.61 1.2.986 1.959.9.146-.012 2.65-.419 2.65-.419l.843.444s.88 2.212.954 2.361c.28.621 1.045 1.087 1.812 1.087h2.106c.763 0 1.525-.465 1.824-1.113.062-.123.94-2.327.94-2.327l.826-.45 2.692.42c.731.088 1.552-.29 1.935-.902l1.053-1.681c.382-.61.326-1.45-.134-2.013-.084-.11-1.72-1.904-1.72-1.904s.015-.303.015-.455c0-.316-.01-.449-.01-.449s1.63-1.8 1.734-1.934c.444-.533.499-1.377.115-1.99l-1.053-1.68c-.382-.61-1.2-.985-1.959-.9-.146.013-2.654.416-2.654.416zm-2.858.6l.152.469.488.191a6.4 6.4 0 011.297.692l.425.294.517-.113c.75-.164 2.516-.437 2.685-.456.099-.01.945 1.34.886 1.413-.103.126-1.242 1.398-1.771 1.915l-.364.355.063.485a5.354 5.354 0 010 1.384l-.063.485.364.355c.53.517 1.668 1.79 1.77 1.915.06.073-.826 1.42-.884 1.413-.17-.02-1.935-.292-2.686-.456l-.517-.113-.425.294c-.4.278-.836.51-1.297.692l-.488.191-.152.469c-.221.681-.847 2.225-.914 2.37-.039.084-1.732.084-1.77 0-.067-.145-.693-1.689-.914-2.37l-.152-.468-.488-.192a6.365 6.365 0 01-1.298-.692l-.424-.294-.517.113c-.751.164-2.517.437-2.686.456-.098.01-.945-1.34-.885-1.413.102-.126 1.241-1.398 1.77-1.915l.365-.355-.063-.485a5.352 5.352 0 010-1.384l.063-.485-.364-.355c-.53-.517-1.669-1.79-1.771-1.915-.06-.073.787-1.424.885-1.413.17.02 1.935.292 2.686.456l.517.113.424-.294c.401-.278.837-.51 1.298-.692l.488-.192.152-.468c.22-.681.847-2.225.914-2.37.038-.084 1.731-.084 1.77 0 .067.145.693 1.689.914 2.37zm-1.8 9.064c-1.874 0-3.393-1.4-3.393-3.127 0-1.727 1.52-3.128 3.394-3.128s3.393 1.4 3.393 3.128c0 1.727-1.519 3.127-3.393 3.127zm1.132-3.127c0 .576-.507 1.043-1.131 1.043-.625 0-1.132-.467-1.132-1.043 0-.576.507-1.042 1.132-1.042.624 0 1.13.466 1.13 1.042z" ></path>
  </symbol>
</svg>