<svg width="0" height="0" class="hidden">
  <symbol xmlns="http://www.w3.org/2000/svg" viewBox="0 0 22 20" id="search">
    <path fill-rule="evenodd" clip-rule="evenodd" d="M20.931 17.59l-4.05-3.732v-.002c2.93-3.478 2.42-8.456-1.164-11.368-3.583-2.913-9.006-2.756-12.385.357C-.047 5.96-.217 10.956 2.944 14.26c3.16 3.302 8.562 3.772 12.337 1.072l4.05 3.732a1.2 1.2 0 001.1.285 1.09 1.09 0 00.808-.744.989.989 0 00-.308-1.014zm-5.321-5.72c-1.212 1.936-3.453 3.128-5.878 3.128-3.749 0-6.788-2.8-6.788-6.255 0-3.454 3.04-6.255 6.788-6.255 2.425 0 4.666 1.192 5.878 3.128a5.833 5.833 0 010 6.255z" ></path>
  </symbol>
   <symbol  xmlns="http://www.w3.org/2000/svg" viewBox="0 0 32 22" id="video">
    <path  fill-rule="evenodd" clip-rule="evenodd" d="M25.81 3.35l-4.297 2.933V2.97c0-1.443-1.243-2.609-2.776-2.609H3.464C1.928.36.688 1.528.688 2.969v15.632c0 1.443 1.242 2.609 2.776 2.609h15.273c1.536 0 2.776-1.168 2.776-2.609v-3.314l4.298 2.934c.307.21.873.383 1.257.383h2.77c.778 0 1.393-.585 1.393-1.307V4.273c0-.722-.623-1.307-1.392-1.307h-2.77c-.393 0-.948.172-1.258.384zM3.465 18.604V2.966h15.272v15.638H3.464zm2.777-3.91c0-.72.623-1.303 1.392-1.303h6.934c.769 0 1.392.579 1.392 1.303 0 .72-.622 1.303-1.392 1.303H7.633c-.769 0-1.392-.578-1.392-1.303zm21.043 1.303l-5.754-3.921V9.494l5.75-3.925 1.174.002v10.425l-1.17.001z" ></path>
  </symbol>
  <symbol  xmlns="http://www.w3.org/2000/svg" viewBox="0 0 25 23" id="apps">
    <path  fill-rule="evenodd" clip-rule="evenodd" d="M.794 2.966c0 1.44 1.266 2.607 2.828 2.607 1.562 0 2.828-1.167 2.828-2.607C6.45 1.526 5.184.36 3.622.36 2.06.36.794 1.527.794 2.966zm2.828 10.947c-1.562 0-2.828-1.167-2.828-2.607C.794 9.866 2.06 8.7 3.622 8.7c1.562 0 2.828 1.167 2.828 2.606 0 1.44-1.266 2.607-2.828 2.607zm0 8.34c-1.562 0-2.828-1.167-2.828-2.607 0-1.44 1.266-2.606 2.828-2.606 1.562 0 2.828 1.167 2.828 2.606 0 1.44-1.266 2.607-2.828 2.607zm9.05 0c-1.562 0-2.828-1.167-2.828-2.607 0-1.44 1.266-2.606 2.828-2.606 1.562 0 2.828 1.167 2.828 2.606 0 1.44-1.266 2.607-2.828 2.607zm6.222-2.607c0 1.44 1.266 2.607 2.828 2.607 1.562 0 2.828-1.167 2.828-2.607 0-1.44-1.266-2.606-2.828-2.606-1.562 0-2.828 1.167-2.828 2.606zm-6.222-5.734c-1.562 0-2.828-1.166-2.828-2.606S11.11 8.7 12.672 8.7c1.562 0 2.828 1.167 2.828 2.606 0 1.44-1.266 2.607-2.828 2.607zM9.844 2.966c0 1.44 1.266 2.607 2.828 2.607 1.562 0 2.828-1.167 2.828-2.607 0-1.44-1.266-2.606-2.828-2.606-1.562 0-2.828 1.167-2.828 2.606zm11.878 10.947c-1.562 0-2.828-1.167-2.828-2.607 0-1.44 1.266-2.606 2.828-2.606 1.562 0 2.828 1.167 2.828 2.606 0 1.44-1.266 2.607-2.828 2.607zM18.894 2.966c0 1.44 1.266 2.607 2.828 2.607 1.562 0 2.828-1.167 2.828-2.607 0-1.44-1.266-2.606-2.828-2.606-1.562 0-2.828 1.167-2.828 2.606z" ></path>
  </symbol>
   <symbol  xmlns="http://www.w3.org/2000/svg" viewBox="0 0 25 28" id="notifications">
    <path  fill-rule="evenodd" clip-rule="evenodd" d="M4.263 23.641c-2.29 0-4.15-1.656-4.15-3.696 0-1.354.822-2.56 2.08-3.204l-.006-4.806c0-4.257 3.207-7.841 7.604-8.912v-.326c0-1.361 1.238-2.464 2.765-2.464 1.528 0 2.766 1.103 2.766 2.464v.326c4.398 1.07 7.604 4.655 7.604 8.919v4.81C24.185 17.398 25 18.6 25 19.944c0 2.043-1.857 3.696-4.15 3.696h-4.146c-.002 2.042-1.863 3.697-4.148 3.697-2.29 0-4.148-1.654-4.148-3.694l-4.145-.003zm6.91 0c0 .682.619 1.232 1.383 1.232.76 0 1.38-.552 1.383-1.232h-2.765zm8.988-11.7v5.954c0 .342.305.689.674.774l.362.083c.605.14 1.038.63 1.038 1.193 0 .681-.619 1.232-1.386 1.232H4.263c-.764 0-1.385-.553-1.385-1.232 0-.565.43-1.054 1.036-1.193l.375-.086c.366-.084.663-.426.663-.77v-5.96c0-3.743 3.404-6.775 7.604-6.775 4.203 0 7.605 3.031 7.605 6.78z" ></path>
  </symbol>
</svg>