<svg width="21" height="19" viewBox="0 0 21 19" fill="none" xmlns="http://www.w3.org/2000/svg">
<path opacity="0.24" fill-rule="evenodd" clip-rule="evenodd" d="M14.5162 0.894989C12.9516 0.894989 11.5245 1.44842 10.4437 2.35857C9.36295 1.44842 7.93576 0.894989 6.3712 0.894989C2.99743 0.894989 0.262451 3.46839 0.262451 6.64284C0.262451 11.2761 5.33126 15.7542 10.0144 18.3669C10.2515 18.5053 10.6396 18.5034 10.876 18.365C15.5282 15.7436 20.625 11.2758 20.625 6.64284C20.625 3.46839 17.89 0.894989 14.5162 0.894989ZM10.4495 16.3502C5.41485 13.2534 2.29871 9.63574 2.29871 6.64283C2.29871 4.52654 4.12203 2.81094 6.37121 2.81094C7.38886 2.81094 8.34326 3.16097 9.0857 3.78621L10.0654 4.61128C10.2772 4.78962 10.6131 4.78722 10.822 4.61128L11.8017 3.78621C12.5442 3.16097 13.4986 2.81094 14.5162 2.81094C16.7654 2.81094 18.5887 4.52654 18.5887 6.64283C18.5887 9.7127 15.4842 13.2534 10.4495 16.3502Z" fill="black"/>
</svg>
