<svg width="21" height="22" viewBox="0 0 21 22" fill="none" xmlns="http://www.w3.org/2000/svg">
<path opacity="0.24" fill-rule="evenodd" clip-rule="evenodd" d="M17.0615 18.942C19.0295 18.942 20.625 17.4569 20.625 15.625V1.90375C20.6267 1.82558 20.6181 1.74593 20.598 1.66629C20.4695 1.15673 19.9215 0.840634 19.3741 0.960268L6.17665 3.84452C5.72218 3.94384 5.41097 4.31226 5.35308 4.72609V15.4703C4.89021 15.2656 4.37242 15.1511 3.82589 15.1511C1.85786 15.1511 0.262451 16.6362 0.262451 18.4681C0.262451 20.3001 1.85786 21.7852 3.82589 21.7852C5.79392 21.7852 7.38933 20.3001 7.38933 18.4681V9.3174L18.5887 6.86982V12.6271C18.1258 12.4224 17.608 12.3079 17.0615 12.3079C15.0935 12.3079 13.4981 13.793 13.4981 15.625C13.4981 17.4569 15.0935 18.942 17.0615 18.942ZM7.38933 7.37045V5.52651L18.5887 3.07889V4.92283L7.38933 7.37045ZM18.5887 15.625C18.5887 14.8399 17.905 14.2034 17.0615 14.2034C16.2181 14.2034 15.5343 14.8399 15.5343 15.625C15.5343 16.4101 16.2181 17.0466 17.0615 17.0466C17.905 17.0466 18.5887 16.4101 18.5887 15.625ZM3.8259 17.0466C4.66934 17.0466 5.35308 17.6831 5.35308 18.4682C5.35308 19.2533 4.66934 19.8897 3.8259 19.8897C2.98245 19.8897 2.29871 19.2533 2.29871 18.4682C2.29871 17.6831 2.98245 17.0466 3.8259 17.0466Z" fill="black"/>
</svg>
