<svg width="25" height="28" viewBox="0 0 25 28" fill="none" xmlns="http://www.w3.org/2000/svg">
<path opacity="0.24" fill-rule="evenodd" clip-rule="evenodd" d="M4.2634 23.6414C1.97211 23.6414 0.112549 21.9848 0.112549 19.9452C0.112549 18.5915 0.935103 17.3849 2.19234 16.7405C2.19234 16.3666 2.1865 11.9352 2.1865 11.9352C2.1865 7.67789 5.3938 4.09357 9.791 3.02276V2.6966C9.791 1.33572 11.0291 0.232513 12.5563 0.232513C14.0835 0.232513 15.3215 1.33572 15.3215 2.6966V3.02276C19.7197 4.09335 22.926 7.67798 22.926 11.9416V16.7513C24.1848 17.3987 25 18.6003 25 19.9452C25 21.9875 23.1432 23.6414 20.8491 23.6414H16.7042C16.7018 25.6831 14.841 27.3375 12.5563 27.3375C10.2654 27.3375 8.40837 25.6844 8.40837 23.644L4.2634 23.6414ZM11.1737 23.6414C11.1737 24.3229 11.792 24.8734 12.5563 24.8734C13.3152 24.8734 13.9365 24.3209 13.9388 23.6414H11.1737ZM20.1608 11.9416V17.8952C20.1608 18.2367 20.4662 18.5839 20.8348 18.6688L21.1974 18.7523C21.8023 18.8916 22.2347 19.3821 22.2347 19.9452C22.2347 20.6264 21.6162 21.1773 20.8492 21.1773H4.26339C3.49914 21.1773 2.87781 20.6238 2.87781 19.9452C2.87781 19.3797 3.30851 18.8911 3.91383 18.7522L4.28855 18.6663C4.65483 18.5822 4.95177 18.2398 4.95177 17.8952V11.9352C4.95177 8.19345 8.35566 5.16069 12.5563 5.16069C16.7586 5.16069 20.1608 8.19243 20.1608 11.9416Z" fill="black"/>
</svg>
