<svg width="22" height="20" viewBox="0 0 22 20" fill="none" xmlns="http://www.w3.org/2000/svg">
<path fill-rule="evenodd" clip-rule="evenodd" d="M20.9312 17.5897L16.8813 13.8576L16.8802 13.8565C19.8101 10.3782 19.3009 5.40012 15.7173 2.48759C12.1338 -0.424948 6.71063 -0.268333 3.33198 2.84526C-0.0466797 5.95886 -0.216627 10.9565 2.94385 14.259C6.10433 17.5614 11.5062 18.0306 15.2806 15.3306L19.3305 19.0628C19.6143 19.3339 20.0348 19.4429 20.4304 19.3477C20.826 19.2526 21.1351 18.9682 21.2389 18.6037C21.3427 18.2393 21.2251 17.8516 20.9312 17.5897ZM15.6099 11.8706C14.3975 13.8059 12.1567 14.9981 9.73175 14.9981C5.9831 14.9981 2.94421 12.1976 2.94421 8.74305C2.94421 5.28851 5.9831 2.48805 9.73175 2.48805C12.1567 2.48805 14.3975 3.68025 15.6099 5.61555C16.8224 7.55086 16.8224 9.93525 15.6099 11.8706Z" fill="black"/>
</svg>
