<svg width="22" height="22" viewBox="0 0 22 22" fill="none" xmlns="http://www.w3.org/2000/svg">
<path opacity="0.24" fill-rule="evenodd" clip-rule="evenodd" d="M15.6986 4.3383L14.8582 3.88634C14.8582 3.88634 13.9808 1.68562 13.9067 1.53666C13.627 0.915641 12.8618 0.449951 12.0948 0.449951H9.98862C9.2248 0.449951 8.46285 0.914644 8.1639 1.56347C8.10261 1.68585 7.23489 3.88576 7.23489 3.88576L6.40456 4.34064C6.40456 4.34064 3.87565 3.93468 3.69854 3.91928C2.97508 3.83199 2.15484 4.20985 1.77132 4.822L0.718246 6.50289C0.336336 7.11248 0.392056 7.95292 0.852314 8.51592C0.936732 8.62609 2.57094 10.4288 2.57094 10.4288C2.57094 10.4288 2.55732 10.7257 2.55732 10.8749C2.55732 11.1909 2.56933 11.3221 2.56933 11.3221C2.56933 11.3221 0.936732 13.1238 0.833712 13.2574C0.389838 13.7912 0.334692 14.6348 0.718246 15.247L1.77132 16.9279C2.15319 17.5374 2.97074 17.9132 3.72988 17.8275C3.87565 17.8152 6.37978 17.4085 6.37978 17.4085L7.22277 17.8515C7.22277 17.8515 8.10261 20.064 8.17662 20.213C8.45629 20.8341 9.22151 21.2999 9.98862 21.2999H12.0948C12.8585 21.2999 13.6205 20.8354 13.9194 20.1866C13.9808 20.0643 14.8582 17.8596 14.8582 17.8596L15.6851 17.4103C15.6851 17.4103 18.3713 17.8293 18.3774 17.8299C19.1081 17.9179 19.9285 17.5401 20.3121 16.9279L21.3651 15.247C21.747 14.6375 21.6914 13.7971 21.2313 13.2341C21.1469 13.1239 19.5119 11.33 19.5119 11.33C19.5119 11.33 19.5261 11.0271 19.5261 10.8749C19.5261 10.5591 19.5159 10.4262 19.5159 10.4262C19.5159 10.4262 21.1469 8.62596 21.2499 8.49233C21.6936 7.9586 21.7487 7.11504 21.3651 6.50289L20.3121 4.822C19.9302 4.21241 19.1125 3.83666 18.3533 3.92249C18.2075 3.93477 15.6986 4.3383 15.6986 4.3383ZM12.8409 4.93806L12.9928 5.40651L13.4808 5.59837C13.942 5.77967 14.3775 6.01207 14.7783 6.28994L15.2029 6.58434L15.7198 6.47118C16.4708 6.30682 18.2362 6.03426 18.4055 6.01521C18.5037 6.00417 19.3502 7.35523 19.2907 7.42803C19.1882 7.55362 18.0495 8.82625 17.5196 9.34337L17.1557 9.69845L17.2189 10.1833C17.2486 10.4114 17.2636 10.6422 17.2636 10.875C17.2636 11.1078 17.2486 11.3386 17.2189 11.5667L17.1557 12.0516L17.5196 12.4066C18.0495 12.9237 19.1882 14.1964 19.2907 14.322C19.3502 14.3948 18.4635 15.7413 18.4055 15.7348C18.2362 15.7157 16.4708 15.4432 15.7198 15.2788L15.2029 15.1657L14.7783 15.4601C14.3775 15.7379 13.942 15.9703 13.4808 16.1516L12.9928 16.3435L12.8409 16.8119C12.6199 17.4931 11.9936 19.0374 11.9268 19.1819C11.8882 19.2657 10.1953 19.2657 10.1566 19.1819C10.0899 19.0373 9.46368 17.4931 9.24276 16.812L9.0908 16.3436L8.60277 16.1517C8.1416 15.9704 7.70605 15.738 7.3053 15.4602L6.88071 15.1658L6.36376 15.279C5.61274 15.4433 3.8472 15.7158 3.67788 15.7349C3.57973 15.7459 2.73329 14.3948 2.79274 14.322C2.89528 14.1964 4.03397 12.9239 4.56383 12.4069L4.92771 12.0518L4.86455 11.5668C4.83483 11.3387 4.81983 11.1078 4.81983 10.875C4.81983 10.6422 4.83483 10.4113 4.86455 10.1832L4.92771 9.69823L4.56383 9.34314C4.03397 8.82609 2.89528 7.55358 2.79274 7.428C2.73329 7.3552 3.57973 6.00411 3.67788 6.01514C3.8472 6.03417 5.61274 6.30666 6.36376 6.47105L6.88071 6.5842L7.3053 6.28982C7.70605 6.01197 8.1416 5.77958 8.60277 5.59829L9.0908 5.40644L9.24276 4.93797C9.46368 4.25689 10.0899 2.71267 10.1566 2.56811C10.1953 2.48432 11.8882 2.48428 11.9268 2.56807C11.9936 2.71262 12.6199 4.25689 12.8409 4.93806ZM11.0417 14.0024C9.16737 14.0024 7.64794 12.6022 7.64794 10.8749C7.64794 9.14767 9.16737 7.74744 11.0417 7.74744C12.916 7.74744 14.4354 9.14767 14.4354 10.8749C14.4354 12.6022 12.916 14.0024 11.0417 14.0024ZM12.1729 10.875C12.1729 11.4507 11.6665 11.9175 11.0417 11.9175C10.4169 11.9175 9.91044 11.4507 9.91044 10.875C9.91044 10.2993 10.4169 9.83252 11.0417 9.83252C11.6665 9.83252 12.1729 10.2993 12.1729 10.875Z" fill="black"/>
</svg>
