<svg width="19" height="22" viewBox="0 0 19 22" fill="none" xmlns="http://www.w3.org/2000/svg">
<path opacity="0.24" fill-rule="evenodd" clip-rule="evenodd" d="M15.7957 7.54643C17.5122 8.91253 18.4938 10.5875 18.4938 12.8847C18.4938 17.6705 14.4363 21.4392 9.4568 21.4392C4.47278 21.4392 0.393799 17.668 0.393799 12.8847C0.393799 10.2504 1.01325 8.62231 2.83166 5.91616C3.40705 5.05987 4.80417 5.37171 4.91242 6.38059C5.00969 7.28712 5.30834 8.05878 5.74348 8.65038C5.45325 5.45365 6.95926 1.85847 10.6727 0.150472C11.5324 -0.244958 12.4917 0.482562 12.268 1.36032C11.6883 3.63508 12.2856 4.8589 13.847 6.1773C13.8851 6.20947 14.0797 6.34181 14.3369 6.51684C14.8029 6.83383 15.4746 7.29084 15.7957 7.54643ZM3.35852 9.43018C3.03976 10.114 2.6563 10.9367 2.6563 12.8847C2.6563 16.4783 5.71189 19.3033 9.4568 19.3033C13.195 19.3033 16.2313 16.4831 16.2313 12.8847C16.2313 11.2793 15.5804 10.1687 14.3374 9.17938C14.1412 9.02322 13.6813 8.70793 13.2484 8.41118C12.8391 8.13059 12.4539 7.86657 12.3387 7.76926C10.8397 6.50352 9.92322 5.15565 9.79874 3.35835C9.04081 4.05584 7.29922 6.2242 8.28085 10.5155C8.43302 11.1807 7.89602 11.8088 7.17508 11.8088C5.74468 11.8088 4.33073 10.7761 3.46658 9.19528C3.43191 9.27274 3.39566 9.35052 3.35852 9.43018Z" fill="black"/>
</svg>
