<svg width="32" height="22" viewBox="0 0 32 22" fill="none" xmlns="http://www.w3.org/2000/svg">
<path opacity="0.24" fill-rule="evenodd" clip-rule="evenodd" d="M25.8106 3.34955L21.5128 6.28331V2.96904C21.5128 1.52568 20.2699 0.360016 18.7366 0.360016H3.46371C1.92785 0.360016 0.6875 1.52812 0.6875 2.96904V18.601C0.6875 20.0444 1.93045 21.21 3.46371 21.21H18.7366C20.2725 21.21 21.5128 20.0419 21.5128 18.601V15.2867L25.8106 18.2205C26.118 18.4303 26.6838 18.6038 27.0683 18.6038H29.8389C30.6159 18.6038 31.2313 18.0189 31.2313 17.2974V4.27261C31.2313 3.55073 30.6079 2.96627 29.8389 2.96627H27.0683C26.676 2.96627 26.1207 3.13787 25.8106 3.34955ZM3.46436 18.6038V2.96627H18.7361V18.6038H3.46436ZM6.24084 14.6944C6.24084 13.9747 6.86356 13.3913 7.63327 13.3913H14.5669C15.3359 13.3913 15.9594 13.9697 15.9594 14.6944C15.9594 15.4141 15.3366 15.9975 14.5669 15.9975H7.63327C6.86425 15.9975 6.24084 15.4191 6.24084 14.6944ZM27.284 15.9973L21.5297 12.0756L21.53 9.49418L27.2801 5.56897L28.4545 5.57061V15.9963L27.284 15.9973Z" fill="black"/>
</svg>
