<svg width="132" height="27" viewBox="0 0 132 27" fill="none" xmlns="http://www.w3.org/2000/svg">
<rect x="9.48364" y="4.44373" width="23.7562" height="17.7225" fill="white"/>
<path fill-rule="evenodd" clip-rule="evenodd" d="M13.6393 26.1518L22.1431 26.2932C22.1566 26.2932 22.1837 26.2932 22.1837 26.3116C26.9193 26.3915 31.5331 26.1395 36.2552 25.826C40.0234 25.5863 40.9164 23.103 41.3832 20.1402C41.965 16.5628 42.0935 12.9423 41.7891 9.34027C41.7745 9.1702 41.7604 8.9986 41.7463 8.82593C41.4632 5.37898 41.145 1.50419 36.6611 0.79005C35.7072 0.63638 34.733 0.50115 33.7656 0.476563C24.6056 0.206103 15.3644 0.138488 6.18409 0.716289C3.4645 0.876106 1.70557 2.33905 1.25907 4.79163C0.467544 9.16201 0.30518 13.6492 0.724619 18.0565C0.729854 18.1104 0.735085 18.1644 0.740331 18.2187C1.04018 21.319 1.39056 24.9417 5.4264 25.6908C7.59916 26.1015 9.81138 26.1179 12.0278 26.1343C12.5649 26.1382 13.1022 26.1422 13.6393 26.1518ZM21.6223 16.4561C20.1357 17.2324 18.6457 18.0105 17.1436 18.7941V7.7421C18.761 8.58505 20.3671 9.42415 21.9747 10.2641C23.884 11.2616 25.7956 12.2603 27.7311 13.2681C25.6864 14.3337 23.6575 15.3932 21.6223 16.4561Z" fill="#FF0000"/>
<path fill-rule="evenodd" clip-rule="evenodd" d="M109.919 23.9887C110.014 23.6595 110.112 23.3199 110.219 22.9247C110.301 23.0289 110.367 23.1145 110.423 23.1886L110.424 23.189L110.424 23.1896C110.498 23.2855 110.557 23.3622 110.618 23.4349C112.383 25.5433 115.942 25.1745 117.031 22.7403C117.363 22.0027 117.626 21.1975 117.667 20.4107C117.768 17.8352 117.809 15.2658 117.755 12.6903C117.728 11.6884 117.505 10.6618 117.16 9.70294C116.625 8.16009 115.116 7.45321 113.351 7.76669C112.241 7.97569 111.382 8.51661 110.719 9.34643C110.68 9.3934 110.637 9.43913 110.584 9.49646C110.519 9.56667 110.438 9.65427 110.327 9.78285V1.17731H106.444V24.5045H109.772C109.821 24.3311 109.87 24.1614 109.919 23.9887ZM110.408 20.7734V16.5075V12.2416C110.408 11.5224 110.787 10.9815 111.409 10.6004C112.235 10.1025 113.073 10.3545 113.378 11.2089C113.54 11.6822 113.669 12.1863 113.669 12.6719C113.648 15.2843 113.581 17.8905 113.506 20.4968C113.5 20.7734 113.371 21.05 113.243 21.3143C112.938 21.9474 112.329 22.2117 111.578 22.0519C110.814 21.8921 110.408 21.4679 110.408 20.7734ZM99.8543 8.09862H103.92V24.5168H100.747C100.643 23.9537 100.539 23.3754 100.419 22.7132L100.419 22.7121L100.419 22.7106L100.382 22.5068C100.241 22.6946 100.138 22.8383 100.045 22.9665L100.045 22.9666L100.045 22.9669C99.9953 23.0357 99.9489 23.1001 99.9017 23.1645C98.8463 24.5475 97.3512 25.0208 95.5855 24.7688C94.0769 24.5475 93.1703 23.4903 92.9674 21.7569C92.9065 21.2405 92.8794 20.718 92.8794 20.2017C92.8704 17.6401 92.8734 15.073 92.8764 12.5077V12.5063V12.505V12.5036V12.5023V12.5009V12.4995V12.4982C92.8779 11.2194 92.8794 9.94108 92.8794 8.66413V8.08633H96.9926V8.75633C96.9926 9.68469 96.9918 10.6127 96.991 11.5405C96.9884 14.323 96.9859 17.1039 97.0062 19.8882C97.0062 20.4168 97.0671 20.9639 97.1685 21.4925C97.2836 22.0335 97.7165 22.2302 98.2983 22.1933C99.2387 22.1257 99.8881 21.4925 99.8881 20.6443V8.82395C99.8543 8.58422 99.8543 8.36294 99.8543 8.09862ZM75.9463 8.08633H71.8601L71.8534 8.5289C71.8534 12.5182 71.8534 16.5259 71.8669 20.5152C71.8669 21.0131 71.921 21.5048 71.9954 22.0027C72.266 23.5947 73.1523 24.5659 74.6 24.7626C76.4063 25.0147 77.8879 24.4983 78.9432 23.0907C79.0583 22.9247 79.1733 22.7649 79.3762 22.4883C79.4448 22.8539 79.5063 23.1842 79.5638 23.4937L79.5646 23.4977C79.6315 23.8579 79.6933 24.19 79.7551 24.5168H82.9144V8.11092H78.8485V8.84853V20.6074C78.8418 21.4618 78.2803 22.0457 77.3534 22.1625C76.6837 22.2424 76.2913 22.0457 76.1357 21.4372C76.0139 20.9209 75.9598 20.3738 75.9598 19.8452C75.9395 17.0843 75.9421 14.3199 75.9446 11.5521V11.5516L75.9446 11.5465C75.9454 10.625 75.9463 9.70317 75.9463 8.78092V8.08633ZM69.6958 18.1792L69.6958 18.1794C69.6888 18.29 69.6818 18.4007 69.675 18.5113C69.6618 18.6523 69.6492 18.7982 69.6362 18.9481L69.6361 18.9495L69.6359 18.951L69.6358 18.9524L69.6357 18.9535L69.6357 18.9542C69.4962 20.5678 69.318 22.6294 67.9702 23.7361C67.0298 24.4983 65.8392 24.7749 64.6079 24.8118C64.0599 24.8241 63.5052 24.8241 62.9572 24.7565C60.3662 24.4 59.162 23.3612 58.729 20.7734C58.2351 17.786 58.1945 14.7495 58.7831 11.7621C59.392 8.67028 61.4892 7.57614 64.75 7.77899C67.7943 7.97569 69.1541 9.789 69.5126 12.3707C69.7088 13.852 69.8035 15.3519 69.7629 16.8517C69.7521 17.2942 69.724 17.7367 69.6958 18.1792ZM65.6271 15.3847L65.6271 15.3853C65.6249 15.6859 65.6227 15.9863 65.6227 16.2862C65.6227 17.2597 65.5813 18.2332 65.5401 19.2047C65.5212 19.6502 65.5023 20.0953 65.4874 20.5398C65.4874 20.8963 65.3521 21.259 65.1965 21.5909C65.0003 22.0212 64.6485 22.2609 64.114 22.2609C63.5661 22.2609 63.1466 22.015 62.9843 21.5663C62.563 20.4082 62.6083 19.1622 62.653 17.9338V17.9338V17.9338V17.9337V17.9337C62.665 17.6039 62.677 17.2753 62.6798 16.95C62.6934 15.3027 62.7069 13.6492 62.7069 12.0019C62.7069 11.7759 62.779 11.5446 62.8496 11.3181L62.8625 11.2765C63.079 10.6311 63.4984 10.2992 64.0937 10.2869C64.7026 10.2746 65.1897 10.6065 65.3521 11.3011C65.4941 11.9035 65.5821 12.5182 65.6091 13.1267C65.6381 13.8777 65.6326 14.6318 65.6271 15.3846V15.3847ZM52.7621 13.1943C52.8593 12.7629 52.955 12.3342 53.0502 11.9073C53.3065 10.759 53.5598 9.62405 53.831 8.48587C54.0478 7.56376 54.2763 6.64165 54.5049 5.71893L54.5049 5.7189C54.7686 4.65489 55.0324 3.59006 55.2788 2.52346C55.3938 2.03786 55.6103 1.92107 56.1176 1.93337C56.8922 1.95959 57.6769 1.95474 58.4841 1.94974C58.8121 1.94771 59.1438 1.94566 59.4799 1.94566C59.1321 3.10815 58.79 4.21884 58.4536 5.31101L58.4536 5.31115L58.3637 5.60301C57.2068 9.32799 56.05 13.0653 54.9067 16.8025C54.8187 17.0914 54.7781 17.4049 54.7781 17.7122C54.7691 19.0725 54.7721 20.43 54.7751 21.7885V21.7891V21.7897V21.7903C54.7766 22.4693 54.7781 23.1485 54.7781 23.8283V24.4922H50.807C50.8025 24.4307 50.7965 24.3692 50.7905 24.3078C50.7784 24.1848 50.7664 24.0619 50.7664 23.939C50.7664 23.57 50.7561 23.2004 50.7457 22.831L50.7457 22.8309C50.7237 22.0434 50.7017 21.2566 50.7799 20.4783C51.0339 18.0798 50.3341 15.85 49.6347 13.6211C49.5329 13.2967 49.4311 12.9722 49.3322 12.6473C48.8182 10.9573 48.3007 9.26421 47.7833 7.57115L47.783 7.57005C47.2655 5.87658 46.7479 4.18312 46.2338 2.49273C46.2035 2.40326 46.1838 2.30993 46.1628 2.2106C46.1463 2.1325 46.129 2.05068 46.1052 1.9641H50.1575C51.01 5.69522 51.8691 9.42633 52.7621 13.1943ZM123.614 17.4787H130.46C130.46 16.7172 130.467 15.9766 130.474 15.246V15.2455V15.245C130.482 14.3895 130.491 13.5478 130.487 12.7026C130.46 12.0203 130.331 11.3318 130.155 10.6618C129.77 9.23578 128.884 8.1478 127.219 7.88348C126.191 7.72367 125.115 7.68679 124.074 7.77899C122.159 7.9511 120.921 8.97762 120.353 10.6496C120.211 11.0552 120.082 11.4548 120.008 11.8728C119.588 14.3807 119.663 16.907 119.866 19.4088C119.94 20.423 120.285 21.4372 120.65 22.4084C121.043 23.4472 121.915 24.1234 123.086 24.4369C124.669 24.861 126.259 24.861 127.808 24.3078C129.777 23.6132 130.947 21.3635 130.297 19.6116C129.512 19.5813 128.721 19.542 127.917 19.502C127.579 19.4852 127.238 19.4682 126.895 19.4518L126.888 19.5585V19.5586V19.5587C126.871 19.8507 126.858 20.0797 126.834 20.2939C126.807 20.5644 126.766 20.8287 126.705 21.093C126.516 21.9044 126.042 22.2732 125.23 22.2609C124.452 22.2547 123.959 21.9044 123.857 21.0868C123.754 20.238 123.712 19.3827 123.668 18.5025L123.668 18.5003C123.651 18.1637 123.634 17.8235 123.614 17.4787ZM126.57 15.3211C126.57 15.0089 126.571 14.7013 126.572 14.3972V14.3963C126.574 13.4974 126.577 12.6284 126.556 11.756C126.556 11.4794 126.441 11.1905 126.326 10.9262C126.096 10.4098 125.616 10.2684 125.041 10.2684C124.466 10.2684 124.101 10.5328 123.959 11.0061C123.605 12.166 123.635 13.3465 123.665 14.534C123.672 14.8002 123.679 15.0667 123.681 15.3334C124.716 15.3211 125.657 15.3211 126.57 15.3211ZM82.0281 4.9576H86.0534L86.0602 24.4922H90.0448V4.93916H94.0431V1.99483H82.0281V4.9576Z" fill="black"/>
</svg>
